Coordinates
version=1
nRows=26
nColumns=22
inDegrees=yes

Units are S.I. units (second, meters, Newtons, ...)
If the header above contains a line with 'inDegrees', this indicates whether rotational values are in degrees (yes) or radians (no).

endheader
time	pelvis_tilt	pelvis_list	pelvis_rotation	pelvis_tx	pelvis_ty	pelvis_tz	hip_flexion_r	hip_adduction_r	hip_rotation_r	knee_angle_r	ankle_angle_r	subtalar_angle_r	hip_flexion_l	hip_adduction_l	hip_rotation_l	knee_angle_l	ankle_angle_l	subtalar_angle_l	lumbar_extension	lumbar_bending	lumbar_rotation
      1.59000000	      0.35171707	     -1.73451181	   -267.89011390	     -0.58102759	      0.93072633	     -0.00412422	     34.60163709	     -6.29436888	    -30.81747233	    -20.09767324	      5.79063193	     -2.02619831	    -10.92867990	     -8.16372390	      1.97243027	    -12.90620485	     20.82540763	     10.09580439	     -4.50292397	      5.62369147	    -16.15240741
      1.60000000	      0.42371001	     -1.67511716	   -267.91949667	     -0.57813588	      0.92944808	     -0.01484768	     34.54501552	     -6.45681399	    -31.35620443	    -20.07925761	      5.98964909	     -2.12684222	    -11.45898075	     -8.46658170	      2.07337978	    -13.33123285	     20.69229247	     10.84192367	     -4.44666886	      5.89125664	    -16.39917747
      1.61000000	      0.52479469	     -1.63716838	   -267.97377317	     -0.57494844	      0.92822563	     -0.02577562	     34.52078249	     -6.57120352	    -31.81956495	    -20.36039675	      6.03555397	     -2.25535479	    -11.94278842	     -8.81232505	      2.18875519	    -13.82574029	     20.50398506	     11.71086577	     -4.35071651	      6.18498606	    -16.59777118
      1.62000000	      0.65699881	     -1.62871563	   -268.05750087	     -0.57146648	      0.92706110	     -0.03691988	     34.52896775	     -6.63534495	    -32.23596691	    -20.91089220	      5.88685594	     -2.41444527	    -12.37187378	     -9.19983715	      2.31147647	    -14.38899438	     20.23492814	     12.67064575	     -4.20541460	      6.51010799	    -16.76182310
      1.63000000	      0.82616452	     -1.64653438	   -268.15344089	     -0.56769796	      0.92597369	     -0.04824712	     34.56054667	     -6.65780630	    -32.66259354	    -21.69529679	      5.49894637	     -2.59552542	    -12.73187162	     -9.63699402	      2.49000494	    -15.04147664	     19.87705755	     13.65781261	     -4.01608118	      6.86944850	    -16.91218987
      1.64000000	      1.00377473	     -1.69995906	   -268.32015753	     -0.56362864	      0.92498206	     -0.05975405	     34.63501833	     -6.63190321	    -33.00527144	    -22.66735679	      4.82045957	     -2.82978552	    -13.03190503	    -10.07630981	      2.64732341	    -15.76349567	     19.37563924	     14.76676848	     -3.78045612	      7.23894109	    -16.99381942
      1.65000000	      1.20122014	     -1.78545311	   -268.51599888	     -0.55928880	      0.92409236	     -0.07137652	     34.74106385	     -6.57337370	    -33.33398416	    -23.78265337	      3.94213844	     -3.09438789	    -13.22970740	    -10.53314595	      2.86503137	    -16.61238731	     18.77510666	     15.85109293	     -3.50517556	      7.62623689	    -17.05755708
      1.66000000	      1.39671974	     -1.90742101	   -268.77126386	     -0.55468046	      0.92333407	     -0.08306909	     34.88988631	     -6.47901553	    -33.57285224	    -24.98995873	      2.93985877	     -3.39458393	    -13.31250338	    -10.97033576	      3.11752385	    -17.60041929	     18.03560178	     16.92949814	     -3.19466371	      8.01103532	    -17.07076513
      1.67000000	      1.57280600	     -2.06580343	   -269.10310158	     -0.54980154	      0.92273570	     -0.09477423	     35.08557373	     -6.34328118	    -33.66706384	    -26.24421021	      1.93817515	     -3.71738484	    -13.25908130	    -11.35820847	      3.39253587	    -18.75738373	     17.13700875	     17.97082649	     -2.85727448	      8.37443564	    -17.02374122
      1.68000000	      1.72140620	     -2.25333513	   -269.53177761	     -0.54463612	      0.92232769	     -0.10644438	     35.31999881	     -6.14544609	    -33.57962945	    -27.50477783	      1.04945447	     -4.05879703	    -13.05874156	    -11.67995624	      3.65225021	    -20.11030927	     16.07401375	     18.94784687	     -2.50908647	      8.70749192	    -16.90050144
      1.69000000	      1.82436470	     -2.46072883	   -270.06444102	     -0.53919000	      0.92213057	     -0.11803397	     35.57934202	     -5.88466686	    -33.29904036	    -28.74186832	      0.36818106	     -4.41802461	    -12.69797192	    -11.91168089	      3.88234968	    -21.68736435	     14.83424478	     19.80106224	     -2.16380513	      8.98872619	    -16.69857321
      1.70000000	      1.87767145	     -2.65917748	   -270.70005535	     -0.53346316	      0.92219059	     -0.12950543	     35.81395244	     -5.54721123	    -32.84111456	    -29.90821171	     -0.09178340	     -4.82513980	    -12.18950286	    -12.04969486	      4.07217851	    -23.50546028	     13.42513622	     20.54666762	     -1.85683551	      9.21191852	    -16.42557860
      1.71000000	      1.88734422	     -2.83387452	   -271.44903735	     -0.52746846	      0.92249941	     -0.14082858	     35.99414785	     -5.11580699	    -32.21144131	    -30.97513795	     -0.32073268	     -5.19987288	    -11.53117646	    -12.10316392	      4.16260954	    -25.59025295	     11.88074483	     21.02938302	     -1.60552491	      9.38489375	    -16.07631139
      1.72000000	      1.82501950	     -2.99602554	   -272.24133162	     -0.52128358	      0.92304118	     -0.15199676	     36.11107717	     -4.67410476	    -31.54112384	    -31.93956129	     -0.31368725	     -5.68199124	    -10.69891956	    -12.05244610	      4.29026936	    -27.91198215	     10.16115850	     21.44381821	     -1.37904037	      9.46598298	    -15.70504019
      1.73000000	      1.73779108	     -3.11702092	   -273.11180098	     -0.51488519	      0.92379503	     -0.16295869	     36.12116494	     -4.14585700	    -30.77505502	    -32.76281328	     -0.12641621	     -6.10929582	     -9.72048587	    -11.95620988	      4.32201591	    -30.48790685	      8.36405286	     21.56613733	     -1.22061531	      9.51135822	    -15.29309138
      1.74000000	      1.62201589	     -3.21242670	   -274.02158170	     -0.50833523	      0.92469862	     -0.17369400	     36.03888793	     -3.57788586	    -29.98549347	    -33.46345695	      0.23260865	     -6.49021592	     -8.58214524	    -11.82191105	      4.31248899	    -33.28037693	      6.50584489	     21.43733229	     -1.10349677	      9.51285370	    -14.86201820
      1.75000000	      1.49737033	     -3.28802751	   -274.94544071	     -0.50166711	      0.92572172	     -0.18416861	     35.85897171	     -2.96307435	    -29.18397944	    -34.02419203	      0.71488235	     -6.84064904	     -7.29601750	    -11.67540333	      4.30314702	    -36.23316939	      4.61543662	     21.01487854	     -1.01972659	      9.48991293	    -14.44524788
      1.76000000	      1.38375012	     -3.34641982	   -275.87431740	     -0.49490303	      0.92682745	     -0.19438051	     35.58621264	     -2.30263944	    -28.40028753	    -34.46026653	      1.29420452	     -7.13432722	     -5.88858935	    -11.54254803	      4.29853298	    -39.28031807	      2.75163709	     20.30777708	     -0.96510298	      9.46297484	    -14.04356944
      1.77000000	      1.29721622	     -3.38714731	   -276.79653161	     -0.48806393	      0.92800508	     -0.20433992	     35.21485093	     -1.59429131	    -27.64964810	    -34.77078653	      1.93550780	     -7.37748819	     -4.39582896	    -11.43639571	      4.32977998	    -42.34410521	      0.98414970	     19.36213430	     -0.93854571	      9.44821040	    -13.66131504
      1.78000000	      1.23783986	     -3.41655223	   -277.70445106	     -0.48118976	      0.92924036	     -0.21405407	     34.75945026	     -0.85402620	    -26.93859192	    -34.97186918	      2.60447538	     -7.58523245	     -2.84253285	    -11.34950048	      4.42431003	    -45.35420932	     -0.59791868	     18.20092990	     -0.93092073	      9.44841938	    -13.30903957
      1.79000000	      1.20745748	     -3.43338669	   -278.59975352	     -0.47426748	      0.93052735	     -0.22353025	     34.22453032	     -0.08837492	    -26.27462773	    -35.07652202	      3.27012801	     -7.76079156	     -1.25680096	    -11.28377082	      4.57678803	    -48.25201233	     -1.89879128	     16.90617124	     -0.94391727	      9.46088472	    -12.98707621
      1.80000000	      1.20576675	     -3.44184490	   -279.48522001	     -0.46730299	      0.93188054	     -0.23278709	     33.60951993	      0.70943006	    -25.62812789	    -35.06996978	      3.91623630	     -7.90609475	      0.33518373	    -11.23100529	      4.80077698	    -50.98134112	     -2.82244861	     15.57194330	     -0.96936395	      9.48843446	    -12.69762376
      1.81000000	      1.22663755	     -3.46247403	   -280.35040396	     -0.46030259	      0.93326965	     -0.24182942	     32.94077046	      1.52186657	    -25.02082411	    -34.96420456	      4.54171141	     -8.02384970	      1.94472231	    -11.18389325	      5.11564211	    -53.51293708	     -3.31856708	     14.29637519	     -0.97951308	      9.52597307	    -12.43393124
      1.82000000	      1.26805787	     -3.47575493	   -281.22313986	     -0.45321397	      0.93471619	     -0.25066040	     32.20579179	      2.35826344	    -24.41991478	    -34.76751285	      5.11326317	     -8.11235803	      3.52663422	    -11.14804213	      5.46757088	    -55.81026644	     -3.42836884	     13.07565972	     -0.99976697	      9.56690735	    -12.19785627
      1.83000000	      1.31886707	     -3.48344720	   -282.10912512	     -0.44603746	      0.93622911	     -0.25930901	     31.40104535	      3.20919285	    -23.81649899	    -34.47097793	      5.64219290	     -8.17692002	      5.06077976	    -11.10064378	      5.87180043	    -57.83915686	     -3.22605488	     11.89235430	     -1.02186885	      9.60016386	    -11.94422107
      1.84000000	      1.37748947	     -3.49209047	   -283.01218216	     -0.43876379	      0.93777077	     -0.26775639	     30.54523226	      4.07295439	    -23.19894974	    -34.09418824	      6.11965773	     -8.22499505	      6.55684614	    -11.05753434	      6.29962290	    -59.60197676	     -2.81518425	     10.81919500	     -1.04063495	      9.62767654	    -11.71403520
